<svg width="601" height="601" viewBox="0 0 601 601" fill="none" xmlns="http://www.w3.org/2000/svg">
<path fill-rule="evenodd" clip-rule="evenodd" d="M600.573 300.36C600.573 465.936 466.347 600.159 300.773 600.159C135.203 600.159 0.978638 465.936 0.978638 300.36C0.978638 134.787 135.203 0.560027 300.773 0.560027C466.347 0.560027 600.573 134.787 600.573 300.36Z" fill="black"/>
<path fill-rule="evenodd" clip-rule="evenodd" d="M213.507 142.28H388.04C427.333 142.28 459.307 174.267 459.307 213.56V387.168C459.307 426.46 427.333 458.441 388.04 458.441H213.507C174.227 458.441 142.24 426.46 142.24 387.168V213.56C142.24 174.267 174.227 142.28 213.507 142.28ZM300.32 231.827H301.227C338.693 231.827 369.76 262.893 369.76 300.36C369.76 338.74 338.693 369.807 301.227 369.807H300.32C262.853 369.807 231.787 338.74 231.787 300.36C231.787 262.893 262.853 231.827 300.32 231.827ZM300.32 196.2H301.227C357.88 196.2 405.4 243.707 405.4 300.36C405.4 357.928 357.88 404.529 301.227 404.529H300.32C243.667 404.529 197.067 357.928 197.067 300.36C197.067 243.707 243.667 196.2 300.32 196.2ZM403.573 176.093C415.453 176.093 425.507 186.147 425.507 198.027C425.507 209.907 415.453 219.947 403.573 219.947C390.787 219.947 381.64 209.907 381.64 198.027C381.64 186.147 390.787 176.093 403.573 176.093ZM212.6 109.387H388.947C445.6 109.387 492.2 155.987 492.2 212.64V388.081C492.2 444.735 445.6 491.336 388.947 491.336H212.6C155.947 491.336 109.345 444.735 109.345 388.081V212.64C109.345 155.987 155.947 109.387 212.6 109.387Z" fill="white"/>
</svg>
