<svg width="601" height="601" viewBox="0 0 601 601" fill="none" xmlns="http://www.w3.org/2000/svg">
<path fill-rule="evenodd" clip-rule="evenodd" d="M600.573 300.64C600.573 466.213 466.347 600.44 300.773 600.44C135.203 600.44 0.978638 466.213 0.978638 300.64C0.978638 135.064 135.203 0.84134 300.773 0.84134C466.347 0.84134 600.573 135.064 600.573 300.64Z" fill="black"/>
<path fill-rule="evenodd" clip-rule="evenodd" d="M122.419 293.213C204.893 258.636 304.653 209.42 391.107 176.167C470.92 146.904 469.587 154.884 457.613 234.693C448.307 298.547 437.667 362.387 427.027 426.24C423.027 456.827 407.067 472.787 373.813 454.173L270.067 381.013C255.427 369.04 259.427 359.733 271.4 347.76L367.16 257.305C392.44 232.033 380.467 222.723 351.2 242.673L219.52 331.8C200.893 345.093 180.947 345.093 159.663 338.44L114.437 322.48C85.1747 311.84 107.787 299.867 122.419 293.213Z" fill="white"/>
</svg>
